<svg id="svg" version="1.1" xmlns="http://www.w3.org/2000/svg" xmlns:xlink="http://www.w3.org/1999/xlink" width="400" height="350.26795284030015" viewBox="0, 0, 400,350.26795284030015"><g id="svgg"><path id="path0" d="M185.588 1.020 C 179.095 3.341,170.132 18.668,147.265 66.553 C 144.705 71.915,142.554 76.245,142.486 76.177 C 142.418 76.108,142.842 73.458,143.430 70.288 C 147.918 46.073,149.408 24.265,146.921 19.201 C 143.631 12.500,136.905 10.350,129.939 13.772 C 120.442 18.438,106.991 39.630,93.915 70.525 C 91.720 75.713,89.595 80.729,89.192 81.672 L 88.461 83.387 88.149 76.099 C 86.807 44.731,82.297 32.749,71.343 31.452 C 60.664 30.187,53.599 38.221,33.275 74.739 C 17.451 103.173,13.322 112.181,6.027 134.191 C 0.349 151.323,-0.066 153.616,1.313 160.259 C 1.588 161.582,1.851 163.218,1.898 163.894 C 1.973 164.978,2.691 165.890,3.484 165.910 C 4.192 165.927,4.621 164.568,4.835 161.629 C 6.161 143.446,27.873 96.893,52.153 60.171 C 58.890 49.982,66.146 43.377,69.382 44.487 C 73.892 46.033,77.097 81.647,75.406 111.416 C 74.885 120.596,75.365 118.383,69.678 137.835 C 66.529 148.608,61.892 165.258,59.172 175.563 C 57.802 180.750,55.421 189.143,53.880 194.212 C 34.261 258.752,25.180 308.650,27.877 337.094 C 28.805 346.876,33.085 351.611,38.831 349.211 C 44.334 346.912,45.936 342.161,55.247 300.536 C 70.304 233.218,79.529 185.900,83.602 155.086 C 84.573 147.747,84.274 148.687,91.331 130.761 C 93.420 125.456,96.886 116.398,99.034 110.633 C 108.141 86.190,118.420 62.657,125.785 49.392 C 129.918 41.947,130.009 41.876,129.699 46.302 C 128.371 65.260,124.213 85.394,114.027 122.186 C 107.611 145.362,96.616 187.199,91.493 207.931 C 89.017 217.953,86.047 229.239,84.892 233.012 C 79.961 249.133,80.643 254.912,87.834 257.917 C 95.851 261.267,100.776 256.275,105.845 239.657 C 118.302 198.817,122.164 186.716,128.490 168.703 C 138.649 139.771,149.266 114.028,163.764 83.173 C 171.122 67.511,174.008 61.688,174.041 62.432 C 174.072 63.133,169.363 83.930,166.577 95.391 C 155.768 139.872,152.109 157.142,147.732 184.352 C 132.966 276.129,136.907 319.871,160.982 331.410 C 169.738 335.607,178.629 335.305,194.481 330.273 C 198.598 328.966,202.199 328.012,202.484 328.153 C 202.768 328.294,204.255 329.468,205.788 330.762 C 228.332 349.790,264.419 336.242,280.730 302.627 C 283.645 296.620,283.334 296.748,285.032 300.857 C 292.367 318.607,305.571 328.536,321.758 328.472 C 335.588 328.418,345.572 322.361,361.317 304.473 C 364.554 300.795,368.821 295.945,370.799 293.695 C 372.777 291.444,376.918 286.517,380.000 282.744 C 386.178 275.181,393.715 266.483,397.322 262.754 C 399.645 260.351,400.126 258.895,398.686 258.618 C 397.995 258.485,392.534 263.880,385.117 272.026 C 342.588 318.731,318.283 325.850,303.995 295.784 C 295.899 278.749,295.739 244.028,303.607 212.007 C 306.495 200.256,308.587 194.533,321.552 162.915 C 327.141 149.284,327.676 146.792,325.829 142.976 C 323.145 137.432,315.766 135.680,310.631 139.367 C 307.624 141.526,289.605 160.747,275.090 177.278 C 270.121 182.937,263.522 190.171,260.425 193.355 C 250.934 203.110,241.318 214.874,240.537 217.684 C 238.811 223.900,244.324 229.923,250.470 228.537 C 254.901 227.538,260.986 222.290,272.374 209.646 C 275.666 205.991,278.526 202.937,278.730 202.858 C 279.512 202.556,278.890 219.174,277.568 233.869 C 272.835 286.496,257.873 315.671,233.694 319.423 C 227.764 320.343,220.784 318.790,224.116 317.293 C 228.124 315.491,242.229 304.887,242.229 303.675 C 242.229 302.635,241.367 303.087,238.199 305.788 C 230.973 311.947,222.007 317.546,220.125 317.074 C 218.251 316.603,213.074 310.991,210.861 307.030 C 204.315 295.314,201.514 275.528,201.506 240.943 C 201.494 194.912,205.898 164.003,218.426 122.186 C 220.228 116.174,222.771 107.685,224.078 103.323 C 239.459 51.992,262.019 14.682,279.967 10.893 C 288.485 9.095,290.223 10.909,292.874 24.365 C 296.277 41.640,298.652 47.160,302.680 47.160 C 306.464 47.160,307.942 44.048,306.549 39.014 C 304.755 32.533,302.734 24.125,302.065 20.364 C 300.845 13.498,297.406 7.682,293.186 5.345 C 288.784 2.907,278.082 3.702,271.631 6.945 C 257.366 14.118,231.532 51.633,214.621 89.734 C 180.891 165.730,172.192 285.584,197.758 322.085 C 199.832 325.046,200.034 324.781,195.049 325.651 C 183.654 327.640,170.192 324.479,165.004 318.596 C 159.401 312.244,157.967 304.565,158.026 281.243 C 158.113 247.141,161.620 218.076,171.915 166.131 C 173.550 157.878,175.760 146.495,176.826 140.836 C 178.868 129.991,186.254 93.089,190.943 70.311 C 196.951 41.119,200.966 15.988,200.394 11.147 C 199.467 3.305,192.511 -1.454,185.588 1.020 " stroke="none" fill-rule="evenodd"></path></g></svg>